<?xml version="1.0" encoding="UTF-8" standalone="no"?>
<!-- Created with Inkscape (http://www.inkscape.org/) -->

<svg
   xmlns:dc="http://purl.org/dc/elements/1.1/"
   xmlns:cc="http://creativecommons.org/ns#"
   xmlns:rdf="http://www.w3.org/1999/02/22-rdf-syntax-ns#"
   xmlns:svg="http://www.w3.org/2000/svg"
   xmlns="http://www.w3.org/2000/svg"
   xmlns:sodipodi="http://sodipodi.sourceforge.net/DTD/sodipodi-0.dtd"
   xmlns:inkscape="http://www.inkscape.org/namespaces/inkscape"
   width="210mm"
   height="297mm"
   id="svg2"
   version="1.1"
   inkscape:version="0.48.5 r10040"
   sodipodi:docname="scalephant.svg">
  <defs
     id="defs4" />
  <sodipodi:namedview
     id="base"
     pagecolor="#ffffff"
     bordercolor="#666666"
     borderopacity="1.0"
     inkscape:pageopacity="0.0"
     inkscape:pageshadow="2"
     inkscape:zoom="2.92"
     inkscape:cx="262.87125"
     inkscape:cy="667.53327"
     inkscape:document-units="px"
     inkscape:current-layer="layer1"
     showgrid="false"
     inkscape:window-width="1659"
     inkscape:window-height="979"
     inkscape:window-x="793"
     inkscape:window-y="29"
     inkscape:window-maximized="0">
    <inkscape:grid
       type="xygrid"
       id="grid3049" />
  </sodipodi:namedview>
  <metadata
     id="metadata7">
    <rdf:RDF>
      <cc:Work
         rdf:about="">
        <dc:format>image/svg+xml</dc:format>
        <dc:type
           rdf:resource="http://purl.org/dc/dcmitype/StillImage" />
        <dc:title />
      </cc:Work>
    </rdf:RDF>
  </metadata>
  <g
     inkscape:label="Ebene 1"
     inkscape:groupmode="layer"
     id="layer1">
    <path
       style="fill:#cccccc;stroke:#000000;stroke-width:1px;stroke-linecap:butt;stroke-linejoin:miter;stroke-opacity:1"
       d="m 292.80822,336.60875 c -7.07711,-7.20288 -12.49737,-9.0727 -20.89041,-12.67123 -5.60926,-2.40498 -76.58583,-6.40404 -85.95891,-5.82192 -11.87698,0.73763 -27.02541,1.07448 -32.19178,5.82192 -5.70124,5.23894 -4.58433,14.1665 -5.13698,18.15069 -1.76493,12.72383 0.12272,28.83842 -2.0548,39.72603 -3.48627,17.43136 -3.20555,38.79437 4.10959,53.42465 2.09367,4.18735 11.66794,6.82522 15.75343,2.73973 2.08822,-2.08821 1.92665,-33.17608 8.04794,-36.9863 2.18603,-1.24873 2.79437,-9.2e-4 27.22603,0 3.61532,0.34247 17.15011,0.85616 21.91781,0.5137 3.42652,-0.17436 19.46215,0.92108 24.05823,2.56849 4.86589,1.96918 -6.18172,34.55489 7.44862,35.27397 3.82451,0.20177 5.73458,0.77226 8.21917,-1.71233 8.10227,-8.10227 -11.36701,-59.23156 26.71234,-56.84931 11.42377,0.71467 4.15413,-9.71573 11.64383,-8.39041 7.37255,1.77891 164.44963,1.76082 175.79654,3.02847 3.9907,1.87708 -2.90543,15.80468 4.09158,15.8087 4.4883,0.003 8.98592,-0.198 8.98592,-0.198 2.00242,1.39097 4.26768,-25.58859 -0.2439,-26.27616 -5.98324,-0.91186 -50.44955,-0.59937 -56.78083,-0.41096 -10.1072,0.30078 -123.20145,0.55681 -131.16438,-3.42465 -4.78563,-2.39281 -3.32267,-18.52967 -9.58904,-24.31508 z"
       id="path3013"
       inkscape:connector-curvature="0"
       sodipodi:nodetypes="csssssssccccsssccsssssc" />
    <path
       style="fill:none;stroke:#000000;stroke-width:1px;stroke-linecap:butt;stroke-linejoin:miter;stroke-opacity:1"
       d="m 148.63013,352.01971 c -8.58715,2.8716 -24.9124,-0.68592 -29.62329,-0.5137 -2.28046,-0.47647 -4.95875,1.6157 -4.35391,2.73956 0.78004,1.44906 6.87808,-0.27818 6.56074,2.71201 -0.3949,3.72099 -6.0573,0.0964 -6.65888,3.11008 -1.94694,3.89388 7.02055,-0.53988 5.99315,4.96575 -0.55087,2.952 -4.04097,-0.75355 -6.16438,1.36986 -6.18256,6.18256 21.78692,3.08219 33.21918,3.08219"
       id="path3015"
       inkscape:connector-curvature="0"
       sodipodi:nodetypes="ccsscssc" />
    <path
       style="fill:none;stroke:#000000;stroke-width:1px;stroke-linecap:butt;stroke-linejoin:miter;stroke-opacity:1"
       d="m 164.72603,439.00602 c 1.10553,-0.0956 11.50353,3.02034 16.78082,-1.36987 8.22161,-6.83959 6.65287,-27.99128 7.96234,-37.15754"
       id="path3019"
       inkscape:connector-curvature="0"
       sodipodi:nodetypes="csc" />
    <path
       style="fill:none;stroke:#000000;stroke-width:1px;stroke-linecap:butt;stroke-linejoin:miter;stroke-opacity:1"
       d="m 274.65753,346.02656 c -14.81658,4.05225 -0.67154,13.17868 4.10959,5.99316 0.12885,-0.19365 1.20031,-4.27914 0.68493,-4.79452 -1.75905,-1.75905 -1.94094,-1.71325 -4.79452,-1.19864 z"
       id="path3023"
       inkscape:connector-curvature="0"
       sodipodi:nodetypes="cssc" />
    <path
       style="fill:none;stroke:#000000;stroke-width:1px;stroke-linecap:butt;stroke-linejoin:miter;stroke-opacity:1"
       d="m 251.71233,320.85533 c -31.84932,20.89041 2.73973,35.9589 2.73973,35.9589"
       id="path3027"
       inkscape:connector-curvature="0"
       sodipodi:nodetypes="cc" />
    <path
       style="fill:#808080;stroke:#000000;stroke-width:0.63168472px;stroke-linecap:butt;stroke-linejoin:miter;stroke-opacity:1"
       d="m 302.84247,424.53539 c 0,-3.76488 0,-6.92906 0,-9.58841 0,-14.0087 0,-14.0087 0,-14.0087"
       id="path3051-7"
       inkscape:connector-curvature="0"
       sodipodi:nodetypes="csc" />
    <path
       sodipodi:type="arc"
       style="fill:#808080;stroke:#000000;stroke-opacity:1"
       id="path3029-0"
       sodipodi:cx="377.39725"
       sodipodi:cy="419.82794"
       sodipodi:rx="22.260275"
       sodipodi:ry="8.2191782"
       d="m 399.65752,419.82794 a 22.260275,8.2191782 0 1 1 -44.52055,0 22.260275,8.2191782 0 1 1 44.52055,0 z"
       transform="translate(-52.397247,5.753419)" />
    <path
       sodipodi:type="arc"
       style="fill:#808080;stroke:#000000;stroke-opacity:1"
       id="path3029"
       sodipodi:cx="377.39725"
       sodipodi:cy="419.82794"
       sodipodi:rx="22.260275"
       sodipodi:ry="8.2191782"
       d="m 399.65752,419.82794 a 22.260275,8.2191782 0 1 1 -44.52055,0 22.260275,8.2191782 0 1 1 44.52055,0 z"
       transform="translate(-52.397247,-19.246581)" />
    <path
       style="fill:#808080;stroke:#000000;stroke-width:0.63168472px;stroke-linecap:butt;stroke-linejoin:miter;stroke-opacity:1"
       d="m 347.19178,424.81143 c 0,-3.76488 0,-6.92906 0,-9.58841 0,-14.0087 0,-14.0087 0,-14.0087"
       id="path3051-7-6"
       inkscape:connector-curvature="0"
       sodipodi:nodetypes="csc" />
    <path
       style="fill:#808080;stroke:#000000;stroke-width:0.63168472px;stroke-linecap:butt;stroke-linejoin:miter;stroke-opacity:1"
       d="m 362.84246,424.53538 c 0,-3.76488 0,-6.92906 0,-9.58841 0,-14.0087 0,-14.0087 0,-14.0087"
       id="path3051-7-2"
       inkscape:connector-curvature="0"
       sodipodi:nodetypes="csc" />
    <path
       sodipodi:type="arc"
       style="fill:#808080;stroke:#000000;stroke-opacity:1"
       id="path3029-0-7"
       sodipodi:cx="377.39725"
       sodipodi:cy="419.82794"
       sodipodi:rx="22.260275"
       sodipodi:ry="8.2191782"
       d="m 399.65752,419.82794 a 22.260275,8.2191782 0 1 1 -44.52055,0 22.260275,8.2191782 0 1 1 44.52055,0 z"
       transform="translate(7.6027524,5.753419)" />
    <path
       sodipodi:type="arc"
       style="fill:#808080;stroke:#000000;stroke-opacity:1"
       id="path3029-1"
       sodipodi:cx="377.39725"
       sodipodi:cy="419.82794"
       sodipodi:rx="22.260275"
       sodipodi:ry="8.2191782"
       d="m 399.65752,419.82794 a 22.260275,8.2191782 0 1 1 -44.52055,0 22.260275,8.2191782 0 1 1 44.52055,0 z"
       transform="translate(7.6027524,-19.246581)" />
    <path
       style="fill:#808080;stroke:#000000;stroke-width:0.63168472px;stroke-linecap:butt;stroke-linejoin:miter;stroke-opacity:1"
       d="m 407.19177,424.81142 c 0,-3.76488 0,-6.92906 0,-9.58841 0,-14.0087 0,-14.0087 0,-14.0087"
       id="path3051-7-6-0"
       inkscape:connector-curvature="0"
       sodipodi:nodetypes="csc" />
    <path
       style="fill:#808080;stroke:#000000;stroke-width:0.63168472px;stroke-linecap:butt;stroke-linejoin:miter;stroke-opacity:1"
       d="m 422.84246,424.53538 c 0,-3.76488 0,-6.92906 0,-9.58841 0,-14.0087 0,-14.0087 0,-14.0087"
       id="path3051-7-9"
       inkscape:connector-curvature="0"
       sodipodi:nodetypes="csc" />
    <path
       sodipodi:type="arc"
       style="fill:#808080;stroke:#000000;stroke-opacity:1"
       id="path3029-0-4"
       sodipodi:cx="377.39725"
       sodipodi:cy="419.82794"
       sodipodi:rx="22.260275"
       sodipodi:ry="8.2191782"
       d="m 399.65752,419.82794 a 22.260275,8.2191782 0 1 1 -44.52055,0 22.260275,8.2191782 0 1 1 44.52055,0 z"
       transform="translate(67.602753,5.753419)" />
    <path
       sodipodi:type="arc"
       style="fill:#808080;stroke:#000000;stroke-opacity:1"
       id="path3029-4"
       sodipodi:cx="377.39725"
       sodipodi:cy="419.82794"
       sodipodi:rx="22.260275"
       sodipodi:ry="8.2191782"
       d="m 399.65752,419.82794 a 22.260275,8.2191782 0 1 1 -44.52055,0 22.260275,8.2191782 0 1 1 44.52055,0 z"
       transform="translate(67.602753,-19.246581)" />
    <path
       style="fill:#808080;stroke:#000000;stroke-width:0.63168472px;stroke-linecap:butt;stroke-linejoin:miter;stroke-opacity:1"
       d="m 467.19177,424.81142 c 0,-3.76488 0,-6.92906 0,-9.58841 0,-14.0087 0,-14.0087 0,-14.0087"
       id="path3051-7-6-5"
       inkscape:connector-curvature="0"
       sodipodi:nodetypes="csc" />
    <text
       xml:space="preserve"
       style="font-size:20px;font-style:normal;font-weight:normal;line-height:125%;letter-spacing:0px;word-spacing:0px;fill:#000000;fill-opacity:1;stroke:none;font-family:Bitstream Vera Sans"
       x="305"
       y="452.36218"
       id="text3923"
       sodipodi:linespacing="125%"><tspan
         sodipodi:role="line"
         id="tspan3925"
         x="305"
         y="452.36218"
         style="font-size:10px">Node A</tspan></text>
    <text
       xml:space="preserve"
       style="font-size:20px;font-style:normal;font-weight:normal;line-height:125%;letter-spacing:0px;word-spacing:0px;fill:#000000;fill-opacity:1;stroke:none;font-family:Bitstream Vera Sans"
       x="365"
       y="452.36218"
       id="text3923-3"
       sodipodi:linespacing="125%"><tspan
         sodipodi:role="line"
         id="tspan3925-5"
         x="365"
         y="452.36218"
         style="font-size:10px">Node B</tspan></text>
    <text
       xml:space="preserve"
       style="font-size:20px;font-style:normal;font-weight:normal;line-height:125%;letter-spacing:0px;word-spacing:0px;fill:#000000;fill-opacity:1;stroke:none;font-family:Bitstream Vera Sans"
       x="425"
       y="452.36218"
       id="text3923-9"
       sodipodi:linespacing="125%"><tspan
         sodipodi:role="line"
         id="tspan3925-1"
         x="425"
         y="452.36218"
         style="font-size:10px">Node C</tspan></text>
    <text
       xml:space="preserve"
       style="font-size:20px;font-style:normal;font-weight:normal;line-height:125%;letter-spacing:0px;word-spacing:0px;fill:#000000;fill-opacity:1;stroke:none;font-family:Bitstream Vera Sans"
       x="433.95047"
       y="486.67676"
       id="text3957"
       sodipodi:linespacing="125%"><tspan
         sodipodi:role="line"
         id="tspan3959"
         x="433.95047"
         y="486.67676" /></text>
    <path
       style="fill:none;stroke:#000000;stroke-width:1px;stroke-linecap:butt;stroke-linejoin:miter;stroke-opacity:1"
       d="m 235.44521,402.01972 c 0.29305,3.949 -4.04145,27.50246 0.17123,34.07534 3.00732,4.6922 11.42601,0.78356 16.78082,2.56849"
       id="path3014"
       inkscape:connector-curvature="0"
       sodipodi:nodetypes="csc" />
    <path
       style="fill:#cccccc;stroke:#000000;stroke-width:0.17123288;stroke-opacity:1"
       d="m 170.49752,439.26288 c -0.65925,-0.0818 -1.78834,-0.23959 -2.50908,-0.35053 l -1.31046,-0.2017 0.31207,-0.53816 c 0.63952,-1.10283 1.04599,-3.67674 1.96431,-12.43884 1.29669,-12.37224 2.33941,-18.05147 3.95901,-21.56307 0.78952,-1.71181 1.33523,-2.38383 2.27251,-2.79843 0.74664,-0.33027 0.99877,-0.34226 4.89871,-0.23293 2.26136,0.0634 5.14221,0.16459 6.4019,0.22489 l 2.29035,0.10963 -0.10972,1.04262 c -0.0603,0.57345 -0.26222,3.73955 -0.44862,7.03578 -0.54485,9.63509 -0.99842,13.66935 -1.99252,17.7226 -1.3891,5.66372 -3.68622,9.43305 -6.62021,10.86303 -2.07773,1.01265 -6.05604,1.50408 -9.10825,1.12511 l 0,0 z"
       id="path3016"
       inkscape:connector-curvature="0" />
    <path
       style="fill:#cccccc;stroke:#000000;stroke-width:0.17123288;stroke-opacity:1"
       d="m 238.90505,437.63291 c -2.94767,-0.82053 -4.06758,-3.20903 -4.44563,-9.48143 -0.24866,-4.12574 -0.004,-8.63047 1.03183,-19.01701 0.27656,-2.77252 0.50284,-5.34014 0.50284,-5.70581 l 0,-0.66486 0.98459,0.11045 c 4.97251,0.55783 8.27301,1.09121 9.81504,1.58616 1.11632,0.35832 1.33327,0.71951 1.55693,2.59206 0.17095,1.43117 0.13914,2.13541 -0.46801,10.36083 -0.82335,11.15457 -0.41753,15.7963 1.68646,19.28957 l 0.56103,0.93146 -1.54576,0.002 c -0.85017,0.001 -3.16391,0.06 -5.14165,0.13036 -2.99088,0.10648 -3.75434,0.0839 -4.53767,-0.13415 z"
       id="path3018"
       inkscape:connector-curvature="0" />
    <path
       style="fill:#cccccc;stroke:#000000;stroke-width:0.34246576;stroke-opacity:1"
       d="m 120.4954,369.38985 c -5.46649,-0.27342 -7.10538,-1.02634 -5.46515,-2.51073 0.56308,-0.50957 0.91412,-0.54176 2.57004,-0.23565 2.12479,0.39279 2.79972,0.25594 3.29417,-0.66795 0.39581,-0.73958 0.43109,-2.72225 0.0589,-3.30798 -0.44712,-0.70356 -2.70726,-1.46876 -4.3382,-1.46876 -1.09001,0 -1.55209,-0.14045 -1.55209,-0.47177 0,-0.83002 0.79943,-1.1585 3.17208,-1.30338 2.55029,-0.15573 3.20225,-0.55886 3.5266,-2.18059 0.3311,-1.65552 -0.67763,-2.60692 -2.95333,-2.78544 -3.65833,-0.28698 -4.23938,-0.68538 -2.3925,-1.64044 1.3702,-0.70855 4.06562,-0.66345 11.83208,0.198 5.06438,0.56173 7.89238,0.68861 12.75685,0.57232 l 6.25,-0.14942 -0.001,3.28104 c -7.5e-4,1.80458 -0.10118,5.23777 -0.22316,7.62933 l -0.22177,4.34829 -1.74602,0.18839 c -3.24332,0.34994 -20.55204,0.70556 -24.56707,0.50474 l 2e-5,0 z"
       id="path3020"
       inkscape:connector-curvature="0" />
  </g>
</svg>
