<?xml version="1.0" encoding="UTF-8" standalone="no"?>
<!-- Created with Inkscape (http://www.inkscape.org/) -->

<svg
   xmlns:dc="http://purl.org/dc/elements/1.1/"
   xmlns:cc="http://creativecommons.org/ns#"
   xmlns:rdf="http://www.w3.org/1999/02/22-rdf-syntax-ns#"
   xmlns:svg="http://www.w3.org/2000/svg"
   xmlns="http://www.w3.org/2000/svg"
   xmlns:sodipodi="http://sodipodi.sourceforge.net/DTD/sodipodi-0.dtd"
   xmlns:inkscape="http://www.inkscape.org/namespaces/inkscape"
   width="386.6676"
   height="140.64574"
   id="svg2"
   version="1.1"
   inkscape:version="0.48.5 r10040"
   sodipodi:docname="scalephant.svg">
  <defs
     id="defs4" />
  <sodipodi:namedview
     id="base"
     pagecolor="#ffffff"
     bordercolor="#666666"
     borderopacity="1.0"
     inkscape:pageopacity="0.0"
     inkscape:pageshadow="2"
     inkscape:zoom="4"
     inkscape:cx="148.58611"
     inkscape:cy="59.315381"
     inkscape:document-units="px"
     inkscape:current-layer="layer1"
     showgrid="false"
     inkscape:window-width="1659"
     inkscape:window-height="979"
     inkscape:window-x="793"
     inkscape:window-y="29"
     inkscape:window-maximized="0"
     fit-margin-top="0"
     fit-margin-left="0"
     fit-margin-right="0"
     fit-margin-bottom="0">
    <inkscape:grid
       type="xygrid"
       id="grid3049"
       empspacing="5"
       visible="true"
       enabled="true"
       snapvisiblegridlinesonly="true"
       originx="-128.01461px"
       originy="-654.31046px" />
  </sodipodi:namedview>
  <metadata
     id="metadata7">
    <rdf:RDF>
      <cc:Work
         rdf:about="">
        <dc:format>image/svg+xml</dc:format>
        <dc:type
           rdf:resource="http://purl.org/dc/dcmitype/StillImage" />
        <dc:title></dc:title>
      </cc:Work>
    </rdf:RDF>
  </metadata>
  <g
     inkscape:label="Ebene 1"
     inkscape:groupmode="layer"
     id="layer1"
     transform="translate(-128.01461,-257.40599)">
    <path
       style="fill:#cccccc;stroke:#000000;stroke-width:1px;stroke-linecap:butt;stroke-linejoin:miter;stroke-opacity:1"
       d="M 285.27398,268.11561 C 255.913,256.31804 245.3783,257.78819 230.47945,258.1841 c -13.75836,0.4206 -55.97332,2.63641 -63.01369,15.75343 -6.13758,11.43502 -4.32857,23.15313 -4.79453,34.24658 -0.74654,17.77382 1.93144,57.97245 9.24658,72.60273 2.09367,4.18735 11.66794,6.82522 15.75343,2.73973 2.08822,-2.08821 -5.50141,-40.64017 12.32876,-36.16439 21.29495,5.34552 34.1857,5.50695 57.73973,-0.34247 14.7829,-3.67119 8.67433,35.37131 13.15069,36.84932 3.82451,0.20177 11.21403,1.79966 13.69862,-0.68493 8.10227,-8.10227 -3.83277,-54.09457 16.43836,-56.84931 11.34186,-1.5413 -7.83216,-11.42806 -0.34246,-10.10274 10.45474,9.99809 186.7099,3.47315 198.05681,4.7408 3.9907,1.87708 -2.90543,15.80468 4.09158,15.8087 4.4883,0.003 8.98592,-0.198 8.98592,-0.198 2.00242,1.39097 4.26768,-25.58859 -0.2439,-26.27616 -5.98324,-0.91186 -50.44955,-0.59937 -56.78083,-0.41096 -5.0536,0.15039 -68.64505,0.54644 -102.51642,-3.70238 -33.87137,-4.24881 -33.9687,-5.09676 -47.82603,-9.65377 -10.77922,-3.54476 -1.61035,-19.55707 -19.17809,-28.42467 z"
       id="path3013"
       inkscape:connector-curvature="0"
       sodipodi:nodetypes="ccsssssscssccssssssc"
       inkscape:export-filename="/home/kristof/git/scalephant/doc/scalephant.png"
       inkscape:export-xdpi="130"
       inkscape:export-ydpi="130" />
    <path
       style="fill:none;stroke:#000000;stroke-width:1px;stroke-linecap:butt;stroke-linejoin:miter;stroke-opacity:1"
       d="m 163.01369,301.67726 c -8.58715,2.8716 -24.9124,-0.68592 -29.62329,-0.5137 -2.28046,-0.47647 -4.95875,1.6157 -4.35391,2.73956 0.78004,1.44906 6.87808,-0.27818 6.56074,2.71201 -0.3949,3.72099 -6.0573,0.0964 -6.65888,3.11008 -1.94694,3.89388 7.02055,-0.53988 5.99315,4.96575 -0.55087,2.952 -4.78571,-1.29791 -6.16438,1.36986 -3.53686,6.84398 29.54416,5.0215 33.21918,3.08219"
       id="path3015"
       inkscape:connector-curvature="0"
       sodipodi:nodetypes="ccsscssc"
       inkscape:export-filename="/home/kristof/git/scalephant/doc/scalephant.png"
       inkscape:export-xdpi="130"
       inkscape:export-ydpi="130" />
    <path
       style="fill:none;stroke:#000000;stroke-width:1px;stroke-linecap:butt;stroke-linejoin:miter;stroke-opacity:1"
       d="m 185.95891,384.55397 c 1.448,-1.80793 8.7638,2.19842 14.04109,-2.19179 8.22161,-6.83959 6.08779,-24.12141 7.39726,-33.28767"
       id="path3019"
       inkscape:connector-curvature="0"
       sodipodi:nodetypes="csc"
       inkscape:export-filename="/home/kristof/git/scalephant/doc/scalephant.png"
       inkscape:export-xdpi="130"
       inkscape:export-ydpi="130" />
    <path
       style="fill:none;stroke:#000000;stroke-width:0.97547841px;stroke-linecap:butt;stroke-linejoin:miter;stroke-opacity:1"
       d="m 262.67124,266.06081 c -31.84932,19.87844 2.73973,34.21698 2.73973,34.21698"
       id="path3027"
       inkscape:connector-curvature="0"
       sodipodi:nodetypes="cc"
       inkscape:export-filename="/home/kristof/git/scalephant/doc/scalephant.png"
       inkscape:export-xdpi="130"
       inkscape:export-ydpi="130" />
    <path
       style="fill:#808080;stroke:#000000;stroke-width:0.63168472px;stroke-linecap:butt;stroke-linejoin:miter;stroke-opacity:1"
       d="m 324.07535,370.08334 c 0,-3.76488 0,-6.92906 0,-9.58841 0,-14.0087 0,-14.0087 0,-14.0087"
       id="path3051-7"
       inkscape:connector-curvature="0"
       sodipodi:nodetypes="csc"
       inkscape:export-filename="/home/kristof/git/scalephant/doc/scalephant.png"
       inkscape:export-xdpi="130"
       inkscape:export-ydpi="130" />
    <path
       sodipodi:type="arc"
       style="fill:#808080;stroke:#000000;stroke-opacity:1"
       id="path3029-0"
       sodipodi:cx="377.39725"
       sodipodi:cy="419.82794"
       sodipodi:rx="22.260275"
       sodipodi:ry="8.2191782"
       d="m 399.65752,419.82794 c 0,4.53933 -9.96626,8.21918 -22.26027,8.21918 -12.29401,0 -22.26028,-3.67985 -22.26028,-8.21918 0,-4.53932 9.96627,-8.21918 22.26028,-8.21918 12.29401,0 22.26027,3.67986 22.26027,8.21918 z"
       transform="translate(-31.16437,-48.698636)"
       inkscape:export-filename="/home/kristof/git/scalephant/doc/scalephant.png"
       inkscape:export-xdpi="130"
       inkscape:export-ydpi="130" />
    <path
       sodipodi:type="arc"
       style="fill:#808080;stroke:#000000;stroke-opacity:1"
       id="path3029"
       sodipodi:cx="377.39725"
       sodipodi:cy="419.82794"
       sodipodi:rx="22.260275"
       sodipodi:ry="8.2191782"
       d="m 399.65752,419.82794 c 0,4.53933 -9.96626,8.21918 -22.26027,8.21918 -12.29401,0 -22.26028,-3.67985 -22.26028,-8.21918 0,-4.53932 9.96627,-8.21918 22.26028,-8.21918 12.29401,0 22.26027,3.67986 22.26027,8.21918 z"
       transform="translate(-31.16437,-73.698636)"
       inkscape:export-filename="/home/kristof/git/scalephant/doc/scalephant.png"
       inkscape:export-xdpi="130"
       inkscape:export-ydpi="130" />
    <path
       style="fill:#808080;stroke:#000000;stroke-width:0.63168472px;stroke-linecap:butt;stroke-linejoin:miter;stroke-opacity:1"
       d="m 368.42466,370.35938 c 0,-3.76488 0,-6.92906 0,-9.58841 0,-14.0087 0,-14.0087 0,-14.0087"
       id="path3051-7-6"
       inkscape:connector-curvature="0"
       sodipodi:nodetypes="csc"
       inkscape:export-filename="/home/kristof/git/scalephant/doc/scalephant.png"
       inkscape:export-xdpi="130"
       inkscape:export-ydpi="130" />
    <path
       style="fill:#808080;stroke:#000000;stroke-width:0.63168472px;stroke-linecap:butt;stroke-linejoin:miter;stroke-opacity:1"
       d="m 384.07534,370.08333 c 0,-3.76488 0,-6.92906 0,-9.58841 0,-14.0087 0,-14.0087 0,-14.0087"
       id="path3051-7-2"
       inkscape:connector-curvature="0"
       sodipodi:nodetypes="csc"
       inkscape:export-filename="/home/kristof/git/scalephant/doc/scalephant.png"
       inkscape:export-xdpi="130"
       inkscape:export-ydpi="130" />
    <path
       sodipodi:type="arc"
       style="fill:#808080;stroke:#000000;stroke-opacity:1"
       id="path3029-0-7"
       sodipodi:cx="377.39725"
       sodipodi:cy="419.82794"
       sodipodi:rx="22.260275"
       sodipodi:ry="8.2191782"
       d="m 399.65752,419.82794 c 0,4.53933 -9.96626,8.21918 -22.26027,8.21918 -12.29401,0 -22.26028,-3.67985 -22.26028,-8.21918 0,-4.53932 9.96627,-8.21918 22.26028,-8.21918 12.29401,0 22.26027,3.67986 22.26027,8.21918 z"
       transform="translate(28.835629,-48.698636)"
       inkscape:export-filename="/home/kristof/git/scalephant/doc/scalephant.png"
       inkscape:export-xdpi="130"
       inkscape:export-ydpi="130" />
    <path
       sodipodi:type="arc"
       style="fill:#808080;stroke:#000000;stroke-opacity:1"
       id="path3029-1"
       sodipodi:cx="377.39725"
       sodipodi:cy="419.82794"
       sodipodi:rx="22.260275"
       sodipodi:ry="8.2191782"
       d="m 399.65752,419.82794 c 0,4.53933 -9.96626,8.21918 -22.26027,8.21918 -12.29401,0 -22.26028,-3.67985 -22.26028,-8.21918 0,-4.53932 9.96627,-8.21918 22.26028,-8.21918 12.29401,0 22.26027,3.67986 22.26027,8.21918 z"
       transform="translate(28.835629,-73.698636)"
       inkscape:export-filename="/home/kristof/git/scalephant/doc/scalephant.png"
       inkscape:export-xdpi="130"
       inkscape:export-ydpi="130" />
    <path
       style="fill:#808080;stroke:#000000;stroke-width:0.63168472px;stroke-linecap:butt;stroke-linejoin:miter;stroke-opacity:1"
       d="m 428.42465,370.35937 c 0,-3.76488 0,-6.92906 0,-9.58841 0,-14.0087 0,-14.0087 0,-14.0087"
       id="path3051-7-6-0"
       inkscape:connector-curvature="0"
       sodipodi:nodetypes="csc"
       inkscape:export-filename="/home/kristof/git/scalephant/doc/scalephant.png"
       inkscape:export-xdpi="130"
       inkscape:export-ydpi="130" />
    <path
       style="fill:#808080;stroke:#000000;stroke-width:0.63168472px;stroke-linecap:butt;stroke-linejoin:miter;stroke-opacity:1"
       d="m 444.07534,370.08333 c 0,-3.76488 0,-6.92906 0,-9.58841 0,-14.0087 0,-14.0087 0,-14.0087"
       id="path3051-7-9"
       inkscape:connector-curvature="0"
       sodipodi:nodetypes="csc"
       inkscape:export-filename="/home/kristof/git/scalephant/doc/scalephant.png"
       inkscape:export-xdpi="130"
       inkscape:export-ydpi="130" />
    <path
       sodipodi:type="arc"
       style="fill:#808080;stroke:#000000;stroke-opacity:1"
       id="path3029-0-4"
       sodipodi:cx="377.39725"
       sodipodi:cy="419.82794"
       sodipodi:rx="22.260275"
       sodipodi:ry="8.2191782"
       d="m 399.65752,419.82794 c 0,4.53933 -9.96626,8.21918 -22.26027,8.21918 -12.29401,0 -22.26028,-3.67985 -22.26028,-8.21918 0,-4.53932 9.96627,-8.21918 22.26028,-8.21918 12.29401,0 22.26027,3.67986 22.26027,8.21918 z"
       transform="translate(88.83563,-48.698636)"
       inkscape:export-filename="/home/kristof/git/scalephant/doc/scalephant.png"
       inkscape:export-xdpi="130"
       inkscape:export-ydpi="130" />
    <path
       sodipodi:type="arc"
       style="fill:#808080;stroke:#000000;stroke-opacity:1"
       id="path3029-4"
       sodipodi:cx="377.39725"
       sodipodi:cy="419.82794"
       sodipodi:rx="22.260275"
       sodipodi:ry="8.2191782"
       d="m 399.65752,419.82794 c 0,4.53933 -9.96626,8.21918 -22.26027,8.21918 -12.29401,0 -22.26028,-3.67985 -22.26028,-8.21918 0,-4.53932 9.96627,-8.21918 22.26028,-8.21918 12.29401,0 22.26027,3.67986 22.26027,8.21918 z"
       transform="translate(88.83563,-73.698636)"
       inkscape:export-filename="/home/kristof/git/scalephant/doc/scalephant.png"
       inkscape:export-xdpi="130"
       inkscape:export-ydpi="130" />
    <path
       style="fill:#808080;stroke:#000000;stroke-width:0.63168472px;stroke-linecap:butt;stroke-linejoin:miter;stroke-opacity:1"
       d="m 488.42465,370.35937 c 0,-3.76488 0,-6.92906 0,-9.58841 0,-14.0087 0,-14.0087 0,-14.0087"
       id="path3051-7-6-5"
       inkscape:connector-curvature="0"
       sodipodi:nodetypes="csc"
       inkscape:export-filename="/home/kristof/git/scalephant/doc/scalephant.png"
       inkscape:export-xdpi="130"
       inkscape:export-ydpi="130" />
    <text
       xml:space="preserve"
       style="font-size:20px;font-style:normal;font-weight:normal;line-height:125%;letter-spacing:0px;word-spacing:0px;fill:#000000;fill-opacity:1;stroke:none;font-family:Bitstream Vera Sans"
       x="326.23288"
       y="397.91013"
       id="text3923"
       sodipodi:linespacing="125%"
       inkscape:export-filename="/home/kristof/git/scalephant/doc/scalephant.png"
       inkscape:export-xdpi="130"
       inkscape:export-ydpi="130"><tspan
         sodipodi:role="line"
         id="tspan3925"
         x="326.23288"
         y="397.91013"
         style="font-size:10px">Node A</tspan></text>
    <text
       xml:space="preserve"
       style="font-size:20px;font-style:normal;font-weight:normal;line-height:125%;letter-spacing:0px;word-spacing:0px;fill:#000000;fill-opacity:1;stroke:none;font-family:Bitstream Vera Sans"
       x="386.23288"
       y="397.91013"
       id="text3923-3"
       sodipodi:linespacing="125%"
       inkscape:export-filename="/home/kristof/git/scalephant/doc/scalephant.png"
       inkscape:export-xdpi="130"
       inkscape:export-ydpi="130"><tspan
         sodipodi:role="line"
         id="tspan3925-5"
         x="386.23288"
         y="397.91013"
         style="font-size:10px">Node B</tspan></text>
    <text
       xml:space="preserve"
       style="font-size:20px;font-style:normal;font-weight:normal;line-height:125%;letter-spacing:0px;word-spacing:0px;fill:#000000;fill-opacity:1;stroke:none;font-family:Bitstream Vera Sans"
       x="446.23288"
       y="397.91013"
       id="text3923-9"
       sodipodi:linespacing="125%"
       inkscape:export-filename="/home/kristof/git/scalephant/doc/scalephant.png"
       inkscape:export-xdpi="130"
       inkscape:export-ydpi="130"><tspan
         sodipodi:role="line"
         id="tspan3925-1"
         x="446.23288"
         y="397.91013"
         style="font-size:10px">Node C</tspan></text>
    <text
       xml:space="preserve"
       style="font-size:20px;font-style:normal;font-weight:normal;line-height:125%;letter-spacing:0px;word-spacing:0px;fill:#000000;fill-opacity:1;stroke:none;font-family:Bitstream Vera Sans"
       x="433.95047"
       y="486.67676"
       id="text3957"
       sodipodi:linespacing="125%"><tspan
         sodipodi:role="line"
         id="tspan3959"
         x="433.95047"
         y="486.67676" /></text>
    <path
       style="fill:none;stroke:#000000;stroke-width:1px;stroke-linecap:butt;stroke-linejoin:miter;stroke-opacity:1"
       d="m 256.67809,347.56767 c 0.29305,3.949 -4.04145,27.50246 0.17123,34.07534 3.00732,4.6922 9.37122,0.44106 14.72603,2.22602"
       id="path3014"
       inkscape:connector-curvature="0"
       sodipodi:nodetypes="csc"
       inkscape:export-filename="/home/kristof/git/scalephant/doc/scalephant.png"
       inkscape:export-xdpi="130"
       inkscape:export-ydpi="130" />
    <path
       style="fill:#ffffff;stroke:#000000;stroke-width:0.63442826px;stroke-linecap:butt;stroke-linejoin:miter;stroke-opacity:1"
       d="m 292.125,288.54968 c 0.35404,-4.84864 -2.14121,-7.57331 -4.125,-8.8125 -3.05797,-1.91019 -5.47749,5.79473 -5.47749,5.28787 0,-2.69614 -3.75881,-7.87294 -6.89751,-6.10037 -4.29915,2.42795 -3.875,9.9375 -2.875,10.9375 8.3125,0.375 10.13069,1.87689 19.375,-1.3125 z"
       id="path3016"
       inkscape:connector-curvature="0"
       sodipodi:nodetypes="cssscc"
       inkscape:export-filename="/home/kristof/git/scalephant/doc/scalephant.png"
       inkscape:export-xdpi="130"
       inkscape:export-ydpi="130" />
    <path
       sodipodi:type="arc"
       style="fill:#000000;stroke:#000000;stroke-opacity:1"
       id="path3020"
       sodipodi:cx="168.70415"
       sodipodi:cy="572.95288"
       sodipodi:rx="1.5"
       sodipodi:ry="1"
       d="m 170.20415,572.95288 c 0,0.55229 -0.67158,1 -1.5,1 -0.82843,0 -1.5,-0.44771 -1.5,-1 0,-0.55228 0.67157,-1 1.5,-1 0.82842,0 1.5,0.44772 1.5,1 z"
       transform="matrix(1.06291,0,0,1.1881149,98.97465,-391.92532)"
       inkscape:export-filename="/home/kristof/git/scalephant/doc/scalephant.png"
       inkscape:export-xdpi="130"
       inkscape:export-ydpi="130" />
    <path
       transform="matrix(1.1324637,0,0,1.1986955,96.906709,-398.64372)"
       sodipodi:type="arc"
       style="fill:#000000;stroke:#000000;stroke-opacity:1"
       id="path3020-0"
       sodipodi:cx="168.70415"
       sodipodi:cy="572.95288"
       sodipodi:rx="1.5"
       sodipodi:ry="1"
       d="m 170.20415,572.95288 c 0,0.55229 -0.67158,1 -1.5,1 -0.82843,0 -1.5,-0.44771 -1.5,-1 0,-0.55228 0.67157,-1 1.5,-1 0.82842,0 1.5,0.44772 1.5,1 z"
       inkscape:export-filename="/home/kristof/git/scalephant/doc/scalephant.png"
       inkscape:export-xdpi="130"
       inkscape:export-ydpi="130" />
    <path
       style="fill:#cccccc;fill-opacity:1;stroke:none"
       d="m 85.774412,675.50312 c -1.432343,-0.10004 -3.83306,-0.32429 -4.019848,-0.37549 -0.176852,-0.0485 -0.188121,-0.12508 -0.07662,-0.52079 0.08973,-0.31845 0.09595,-2.24756 0.01985,-6.15144 -0.06098,-3.12813 -0.10048,-7.40837 -0.08777,-9.51166 0.06522,-10.79383 1.875186,-16.80113 5.724464,-18.99955 1.286623,-0.73482 3.333098,-0.93049 5.314931,-0.50819 1.058913,0.22564 7.297472,1.66677 7.329182,1.69306 0.0092,0.008 -0.03023,0.35134 -0.08756,0.76384 -0.05733,0.4125 -0.191319,2.60625 -0.297742,4.875 -0.346025,7.37665 -0.45262,9.22122 -0.639286,11.0625 -1.057279,10.42902 -4.32304,16.20265 -9.860825,17.43324 -0.831245,0.18471 -2.440374,0.30083 -3.318767,0.23948 z"
       id="path3054"
       inkscape:connector-curvature="0"
       transform="translate(106.79586,-291.5907)"
       inkscape:export-filename="/home/kristof/git/scalephant/doc/scalephant.png"
       inkscape:export-xdpi="130"
       inkscape:export-ydpi="130" />
    <path
       style="fill:#cccccc;fill-opacity:1;stroke:none"
       d="m 153.31879,674.82546 c -2.18406,-0.43226 -3.48878,-2.32353 -4.09267,-5.93256 -0.7689,-4.59525 -0.61573,-9.70444 0.68016,-22.6875 0.27106,-2.71563 0.4929,-5.37127 0.49298,-5.90144 l 1.5e-4,-0.96393 0.53125,-0.15561 c 0.29219,-0.0856 1.12188,-0.1557 1.84375,-0.15581 1.15665,-1.8e-4 1.39789,0.0392 2.03164,0.33158 2.6462,1.22089 4.38968,4.78805 5.39232,11.03271 0.55467,3.45454 0.77357,5.92182 1.20332,13.5625 0.33781,6.00608 0.52376,7.76633 1.07288,10.15625 l 0.079,0.34375 -1.10833,0.002 c -0.60957,8.7e-4 -2.17677,0.11337 -3.48265,0.25 -2.47535,0.25896 -3.76734,0.29192 -4.64379,0.11846 l 0,0 z"
       id="path3056"
       inkscape:connector-curvature="0"
       transform="translate(106.79586,-291.5907)"
       inkscape:export-filename="/home/kristof/git/scalephant/doc/scalephant.png"
       inkscape:export-xdpi="130"
       inkscape:export-ydpi="130" />
    <path
       style="fill:#cccccc;fill-opacity:1;stroke:none"
       d="m 34.211912,611.87207 c -0.48125,-0.0189 -1.6625,-0.0958 -2.625,-0.17083 -6.44555,-0.50263 -9.851988,-1.81061 -9.197654,-3.53164 0.353516,-0.92982 0.86864,-1.0191 2.964978,-0.51391 1.476704,0.35586 2.129902,0.3448 2.659354,-0.0451 0.800889,-0.58973 0.982711,-2.68125 0.32013,-3.68248 -0.519363,-0.78481 -1.373017,-1.10791 -3.296853,-1.24785 -2.279779,-0.16582 -2.581582,-0.23352 -2.545475,-0.57102 0.0524,-0.48976 0.46219,-1.20539 0.78302,-1.3674 0.208532,-0.1053 0.919704,-0.15841 2.137597,-0.15964 2.398256,-0.002 3.099858,-0.24717 3.617569,-1.26197 0.777795,-1.5246 0.176115,-2.92139 -1.442666,-3.34912 -0.275,-0.0727 -1.37377,-0.21553 -2.441711,-0.31748 -1.067942,-0.10195 -2.038254,-0.22242 -2.15625,-0.26769 -0.757238,-0.29058 0.614105,-1.61378 2.035461,-1.964 0.939836,-0.23157 3.278962,-0.10254 8.25,0.45509 9.175543,1.02926 13.254848,1.25194 17.311206,0.94497 1.670041,-0.12638 4.113394,-0.49067 4.610014,-0.68733 0.226952,-0.0899 0.230572,0.0446 0.125,4.64532 -0.0598,2.60583 -0.102638,6.34099 -0.0952,8.30037 0.0074,1.95937 -0.01075,3.46406 -0.04041,3.34375 -0.06541,-0.2653 -0.147471,-0.26955 -0.751822,-0.0389 -2.620483,1.0002 -13.062104,1.76793 -20.22128,1.48679 z"
       id="path3058"
       inkscape:connector-curvature="0"
       transform="translate(106.79586,-291.5907)"
       inkscape:export-filename="/home/kristof/git/scalephant/doc/scalephant.png"
       inkscape:export-xdpi="130"
       inkscape:export-ydpi="130" />
  </g>
</svg>
